P2
# Created by GIMP version 2.10.8 PNM plug-in
213 57
255
0
0
0
0
0
0
0
0
102
150
167
182
185
185
175
159
134
46
0
0
0
0
0
0
0
0
0
0
0
0
0
0
0
0
0
0
0
0
0
0
0
0
0
0
0
0
0
0
0
0
0
0
0
0
0
0
0
0
0
0
0
0
0
0
0
0
0
0
0
0
0
0
0
0
0
0
0
0
0
0
0
0
0
0
0
0
0
0
0
0
0
0
0
0
0
0
0
0
0
0
0
0
0
0
0
0
0
0
0
0
0
0
0
0
0
0
0
0
0
0
0
0
0
0
0
0
0
0
0
0
0
0
0
0
0
0
0
0
0
0
0
0
0
0
0
0
0
0
0
0
0
0
0
0
0
0
0
0
0
0
0
0
0
0
0
0
0
0
0
0
0
0
0
0
0
0
0
0
0
0
0
0
0
0
0
0
0
0
0
0
0
0
0
0
0
0
0
0
0
0
0
0
0
0
0
0
0
0
0
0
0
0
0
0
0
0
0
0
71
191
238
255
255
255
255
255
255
255
255
255
251
219
137
0
0
0
0
0
0
0
0
0
0
0
0
0
0
0
0
0
0
0
0
0
0
0
0
0
0
0
0
0
0
0
0
0
0
0
0
0
0
0
0
0
0
0
0
0
0
0
0
0
0
0
0
0
0
0
0
0
0
0
0
0
0
0
0
0
0
0
0
0
0
0
0
0
0
0
0
0
0
0
0
0
0
0
0
0
0
0
0
0
0
0
0
0
0
0
0
0
0
0
0
0
0
0
0
0
0
0
0
0
0
0
0
0
0
0
0
0
0
0
0
0
0
0
0
0
0
0
0
0
0
0
0
0
0
0
0
0
0
0
0
0
0
0
0
0
0
0
0
0
0
0
0
0
0
0
0
0
0
0
0
0
0
0
0
0
0
0
0
0
0
0
0
0
0
0
0
0
0
0
0
0
0
0
0
0
0
0
0
0
0
0
0
0
0
0
0
0
162
246
255
255
255
255
255
255
255
255
255
255
255
255
255
255
217
71
0
0
0
0
0
237
255
255
255
255
255
255
255
255
165
0
0
0
0
0
0
0
0
0
0
0
0
0
0
0
0
0
0
0
0
0
0
0
0
0
0
0
0
0
0
0
0
0
0
0
0
0
0
0
0
0
0
0
0
0
0
0
0
0
0
0
0
0
0
0
0
0
0
0
0
0
0
0
0
0
0
0
0
0
0
0
0
0
0
0
0
0
0
0
0
0
0
0
0
0
0
0
0
0
0
0
0
0
0
0
0
0
0
0
0
0
0
0
0
0
0
0
0
0
0
0
0
0
0
0
0
0
0
0
0
0
0
0
0
0
0
0
0
0
0
0
243
255
255
255
255
255
255
255
255
155
0
0
0
0
0
0
0
0
0
0
0
0
0
0
0
0
0
0
0
0
0
0
0
0
181
255
255
255
255
255
255
255
255
255
243
0
0
0
177
255
255
255
255
255
255
255
255
255
255
255
255
255
255
255
255
255
234
85
0
0
0
0
237
255
255
255
255
255
255
255
255
165
0
0
0
0
0
0
0
0
0
0
0
0
0
0
0
0
0
0
0
0
0
0
0
0
0
0
0
0
0
0
0
0
0
0
0
0
0
0
0
0
0
0
0
0
0
0
0
0
0
0
0
0
0
0
0
0
0
0
0
0
0
0
0
0
0
0
0
0
0
0
0
0
0
0
0
0
0
0
0
0
0
0
0
0
0
0
0
0
0
0
0
0
0
0
0
0
0
0
0
0
0
0
0
0
0
0
0
0
0
0
0
0
0
0
0
0
0
0
0
0
0
0
0
0
0
0
0
0
0
0
0
243
255
255
255
255
255
255
255
255
155
0
0
0
0
0
0
0
0
0
0
0
0
0
0
0
0
0
0
0
0
0
0
0
0
166
255
255
255
255
255
255
255
255
255
233
0
0
147
255
255
255
255
255
255
255
255
255
255
255
255
255
255
255
255
255
255
255
224
13
0
0
0
237
255
255
255
255
255
255
255
255
165
0
0
0
0
0
0
0
0
0
0
0
0
0
0
0
0
0
0
0
0
0
0
0
0
0
0
0
0
0
0
0
0
0
0
0
0
0
0
0
0
0
0
0
0
0
0
0
0
0
0
0
0
0
0
0
0
0
0
0
0
0
0
0
0
0
0
0
0
0
0
0
0
0
0
0
0
0
0
0
0
0
0
0
0
0
0
0
0
0
0
0
0
0
0
0
0
0
0
0
0
0
0
0
0
0
0
0
0
0
0
0
0
0
0
0
0
0
0
0
0
0
0
0
0
0
0
0
0
0
0
0
243
255
255
255
255
255
255
255
255
155
0
0
0
0
0
0
0
0
0
0
0
0
0
0
0
0
0
0
0
0
0
0
0
0
149
255
255
255
255
255
255
255
255
255
223
0
61
242
255
255
255
255
255
255
255
255
255
255
255
255
255
255
255
255
255
255
255
255
168
0
0
0
237
255
255
255
255
255
255
255
255
165
0
0
0
0
0
0
0
0
0
0
0
188
255
255
255
255
255
255
253
75
0
0
0
0
0
0
0
0
0
0
0
0
0
0
0
0
0
0
0
0
0
0
0
0
0
0
0
0
0
0
0
0
0
0
0
0
0
0
0
0
0
0
0
0
0
0
0
0
0
0
0
0
0
0
0
0
0
0
0
0
0
0
0
0
0
0
0
0
0
0
0
0
0
0
0
0
0
0
0
0
0
0
0
0
0
0
0
0
0
0
0
0
0
0
0
0
0
0
0
0
0
0
0
0
0
0
0
0
0
0
0
243
255
255
255
255
255
255
255
255
155
0
0
0
0
0
0
0
0
0
0
0
0
0
0
0
0
0
0
0
0
0
0
0
0
129
255
255
255
255
255
255
255
255
255
212
0
176
255
255
255
255
255
255
255
255
255
255
255
255
255
255
255
255
255
255
255
255
255
241
13
0
0
237
255
255
255
255
255
255
255
255
165
0
0
0
0
0
0
0
0
0
0
0
232
255
255
255
255
255
255
223
0
0
0
0
0
0
0
0
0
0
0
0
0
0
0
0
0
0
0
0
0
0
0
0
0
0
0
0
0
0
0
0
0
0
0
0
0
0
0
0
0
0
0
0
0
0
0
0
0
0
0
0
0
0
0
0
0
0
0
0
0
0
0
0
0
0
0
0
0
0
0
0
0
0
0
0
0
0
0
0
0
0
0
0
0
0
0
0
0
0
0
0
0
0
0
0
0
0
0
0
0
0
0
0
0
0
0
0
0
0
0
0
243
255
255
255
255
255
255
255
255
155
0
0
0
0
0
0
0
0
0
0
0
0
0
0
0
0
0
0
0
0
0
0
0
0
104
255
255
255
255
255
255
255
255
255
200
0
233
255
255
255
255
255
255
255
255
255
255
255
255
255
255
255
255
255
255
255
255
255
255
139
0
0
237
255
255
255
255
255
255
255
255
165
0
0
0
0
0
0
0
0
0
0
93
255
255
255
255
255
255
255
173
0
0
0
0
0
0
0
0
0
0
0
0
0
0
0
0
0
0
0
0
0
0
0
0
0
0
0
0
0
0
0
0
0
0
0
0
0
0
0
0
0
0
0
0
0
0
0
0
0
0
0
0
0
0
0
0
0
0
0
0
0
0
0
0
0
0
0
0
0
0
0
0
0
0
0
0
0
0
0
0
0
0
0
0
0
0
0
0
0
0
0
0
0
0
0
0
0
0
0
0
0
0
0
0
0
0
0
0
0
0
0
0
243
255
255
255
255
255
255
255
255
155
0
0
0
0
0
0
0
0
0
0
0
0
0
0
0
0
0
0
0
0
0
0
0
0
69
255
255
255
255
255
255
255
255
255
187
105
255
255
255
255
255
255
255
255
255
255
255
255
255
255
255
255
255
255
255
255
255
255
255
202
0
0
237
255
255
255
255
255
255
255
255
165
0
0
0
0
0
0
0
0
0
0
173
255
255
255
255
255
255
255
90
0
0
0
0
0
0
0
0
0
0
0
0
0
0
0
0
0
0
0
0
0
0
0
0
0
0
0
0
0
0
0
0
0
0
0
0
0
0
0
0
0
0
0
0
0
0
0
0
0
0
0
0
0
0
0
0
0
0
0
0
0
0
0
0
0
0
0
0
0
0
0
0
0
0
0
0
0
0
0
0
0
0
0
0
0
0
0
0
0
0
0
0
0
0
0
0
0
0
0
0
0
0
0
0
0
0
0
0
0
0
0
0
243
255
255
255
255
255
255
255
255
155
0
0
0
0
0
0
0
0
0
0
0
0
0
0
0
0
0
0
0
0
0
0
0
0
0
252
255
255
255
255
255
255
255
255
173
159
255
255
255
255
255
255
255
255
255
255
255
255
255
255
255
255
255
255
255
255
255
255
255
230
0
0
237
255
255
255
255
255
255
255
255
165
0
0
0
0
0
0
0
0
0
0
221
255
255
255
255
255
255
229
0
0
0
0
0
0
0
0
0
0
0
0
0
0
0
0
0
0
0
0
0
0
0
0
0
0
0
0
0
0
0
0
0
0
0
0
0
0
0
0
0
0
0
0
0
0
0
0
0
0
0
0
0
0
0
0
0
0
0
0
0
0
0
0
0
0
0
0
0
0
0
0
0
0
0
0
0
0
0
0
0
0
0
0
0
0
0
0
0
0
0
0
0
0
0
0
0
0
0
0
0
0
0
0
0
0
0
0
0
0
0
0
0
243
255
255
255
255
255
255
255
255
155
0
0
0
0
0
0
0
0
0
0
0
0
0
0
0
0
0
0
0
0
0
0
0
0
0
244
255
255
255
255
255
255
255
255
156
194
255
255
255
255
255
255
255
255
255
251
163
71
112
227
255
255
255
255
255
255
255
255
255
251
34
0
237
255
255
255
255
255
255
255
255
165
0
0
0
0
0
0
0
0
0
64
252
255
255
255
255
255
255
180
0
0
0
0
0
0
0
0
0
0
0
0
0
0
0
0
0
0
0
0
0
0
0
0
0
0
0
0
0
0
0
0
0
0
0
0
0
0
0
0
0
0
0
0
0
0
0
0
0
0
0
0
0
0
0
0
0
0
0
0
0
0
0
0
0
0
0
0
0
0
0
0
0
0
0
0
0
0
0
0
0
0
0
0
0
0
0
0
0
0
0
0
0
0
0
0
0
0
0
0
0
0
0
0
0
0
0
0
0
0
0
0
0
243
255
255
255
255
255
255
255
255
155
0
0
0
0
0
0
0
0
0
0
0
0
0
0
0
0
0
0
0
0
0
0
0
0
0
234
255
255
255
255
255
255
255
255
138
215
255
255
255
255
255
255
255
255
255
194
0
0
0
99
254
255
255
255
255
255
255
255
255
255
96
0
237
255
255
255
255
255
255
255
255
165
0
0
0
0
0
0
0
0
0
156
255
255
255
255
255
255
255
104
0
0
0
0
0
0
0
0
0
0
0
0
0
0
0
0
0
0
0
0
0
0
0
0
0
0
0
0
0
0
0
0
0
0
0
0
0
0
0
0
0
0
0
0
0
0
0
0
0
0
0
0
0
0
0
0
0
0
0
0
0
0
0
0
0
0
0
0
0
0
0
0
0
0
0
0
0
0
0
0
0
0
0
0
0
0
0
0
0
0
0
0
0
0
0
0
0
0
0
0
0
0
0
0
0
0
0
0
0
0
0
0
0
243
255
255
255
255
255
255
255
255
155
0
0
0
0
0
0
0
0
0
0
0
0
0
0
0
0
0
0
0
0
0
0
0
0
0
223
255
255
255
255
255
255
255
255
115
223
255
255
255
255
255
255
255
255
255
141
0
0
0
0
237
255
255
255
255
255
255
255
255
255
117
0
237
255
255
255
255
255
255
255
255
165
0
0
0
0
0
0
0
0
0
209
255
255
255
255
255
255
234
0
0
0
0
0
0
0
0
0
0
0
0
0
0
0
0
0
0
0
0
0
0
0
0
0
0
0
0
0
0
0
0
0
0
0
0
0
0
0
0
0
0
0
0
0
0
0
0
0
0
0
0
0
0
0
0
0
0
0
0
0
0
0
0
0
0
0
0
0
0
0
0
0
0
0
0
0
0
0
0
0
0
0
0
0
0
0
0
0
0
0
0
0
0
0
0
0
0
0
0
0
0
0
0
0
0
0
0
0
0
0
0
0
0
243
255
255
255
255
255
255
255
255
155
0
0
0
0
0
0
0
0
0
0
0
0
0
0
0
0
0
0
0
0
0
0
0
0
0
212
255
255
255
255
255
255
255
255
86
231
255
255
255
255
255
255
255
255
255
115
0
0
0
0
225
255
255
255
255
255
255
255
255
255
132
0
237
255
255
255
255
255
255
255
255
165
0
0
0
0
0
0
0
0
28
247
255
255
255
255
255
255
188
0
0
0
0
0
0
0
0
0
0
0
0
0
0
0
0
0
0
0
0
0
0
0
0
0
0
0
0
0
0
0
0
0
0
0
0
0
0
0
0
0
0
0
0
0
0
0
0
0
0
0
0
0
0
0
0
0
0
0
0
0
0
0
0
0
0
0
0
0
0
0
0
0
0
0
0
0
0
0
0
0
0
0
0
0
0
0
0
0
0
0
0
0
0
0
0
0
0
0
0
0
0
0
0
0
0
0
0
0
0
0
0
0
0
243
255
255
255
255
255
255
255
255
155
0
0
0
0
0
0
0
0
0
0
0
0
0
0
0
0
0
0
0
0
0
0
0
0
0
200
255
255
255
255
255
255
255
255
34
236
255
255
255
255
255
255
255
255
255
110
0
0
0
0
223
255
255
255
255
255
255
255
255
255
143
0
237
255
255
255
255
255
255
255
255
165
0
0
0
0
0
0
0
0
128
246
246
246
246
246
246
246
117
0
0
0
0
0
0
0
0
0
0
0
0
0
0
0
0
0
0
0
0
0
0
0
0
0
0
0
0
0
0
0
0
0
0
0
0
0
0
0
0
0
0
0
0
0
0
0
0
0
0
0
0
0
0
0
0
0
0
0
0
0
0
0
0
0
0
0
0
0
0
0
0
0
0
0
0
0
0
0
0
0
0
0
0
0
0
0
0
0
0
0
0
0
0
0
0
0
0
0
0
0
0
0
0
0
0
0
0
0
0
0
0
0
0
243
255
255
255
255
255
255
255
255
155
0
0
0
0
0
0
0
0
0
0
0
0
0
0
0
0
0
0
0
0
0
0
0
0
0
187
255
255
255
255
255
255
255
248
0
237
255
255
255
255
255
255
255
255
255
110
0
0
0
0
223
255
255
255
255
255
255
255
255
255
145
0
237
255
255
255
255
255
255
255
255
165
0
0
0
0
0
0
0
0
0
0
0
0
0
0
0
0
0
0
0
0
0
0
0
0
0
0
0
0
0
0
0
0
0
0
0
0
0
0
0
0
0
0
0
0
0
0
0
0
0
0
0
0
0
0
0
0
0
0
0
0
0
0
0
0
0
0
0
0
0
0
0
0
0
0
0
0
0
0
0
0
0
0
0
0
0
0
0
0
0
0
0
0
0
0
0
0
0
0
0
0
0
0
0
0
0
0
0
0
0
0
0
0
0
0
0
0
0
0
0
0
0
0
0
0
0
0
0
0
0
0
0
243
255
255
255
255
255
255
255
255
155
0
0
0
0
0
0
0
0
0
0
0
0
0
0
0
0
0
0
0
0
0
0
0
0
0
173
255
255
255
255
255
255
255
238
0
237
255
255
255
255
255
255
255
255
255
110
0
0
0
0
223
255
255
255
255
255
255
255
255
255
145
0
237
255
255
255
255
255
255
255
255
165
0
0
0
0
0
0
0
56
133
167
178
187
188
183
173
158
113
22
0
0
0
0
0
0
0
0
0
0
0
0
0
0
0
0
0
0
0
0
0
0
0
0
0
0
0
0
0
0
0
0
0
0
0
0
0
0
0
0
0
0
0
0
0
0
0
0
0
0
0
0
0
0
0
0
0
0
0
0
0
0
0
0
0
0
0
0
0
0
0
0
0
0
0
0
0
0
0
0
0
0
0
0
0
0
0
0
0
0
0
0
0
0
0
0
0
0
0
0
0
0
0
38
148
180
183
158
75
0
0
0
0
243
255
255
255
255
255
255
255
255
155
0
0
0
0
0
0
0
42
135
165
180
187
188
182
169
146
64
0
0
0
0
0
0
0
0
156
255
255
255
255
255
255
255
228
0
237
255
255
255
255
255
255
255
255
255
110
0
0
0
0
223
255
255
255
255
255
255
255
255
255
145
0
237
255
255
255
255
255
255
255
255
165
0
0
0
0
0
121
214
253
255
255
255
255
255
255
255
255
255
249
201
104
0
0
0
0
0
0
0
0
0
0
0
0
0
237
255
255
255
255
255
255
255
255
148
0
0
22
167
229
251
252
238
194
79
0
0
0
0
0
75
190
235
252
251
236
190
66
0
0
0
0
237
255
255
255
255
255
255
255
255
177
0
0
115
255
255
255
255
255
255
255
255
252
0
0
237
255
255
255
255
255
255
255
255
148
0
0
0
147
218
247
255
247
223
150
0
0
0
0
0
0
127
240
255
255
255
255
251
194
46
0
0
243
255
255
255
255
255
255
255
255
155
0
0
0
0
0
106
209
251
255
255
255
255
255
255
255
255
253
222
136
0
0
0
0
0
0
138
255
255
255
255
255
255
255
217
0
237
255
255
255
255
255
255
255
255
255
110
0
0
0
0
223
255
255
255
255
255
255
255
255
255
145
0
237
255
255
255
255
255
255
255
255
165
0
0
0
0
165
252
255
255
255
255
255
255
255
255
255
255
255
255
255
250
158
0
0
0
0
0
0
0
0
0
0
0
0
237
255
255
255
255
255
255
255
255
148
0
86
228
255
255
255
255
255
255
244
117
0
0
0
146
246
255
255
255
255
255
255
237
88
0
0
0
237
255
255
255
255
255
255
255
255
177
0
0
115
255
255
255
255
255
255
255
255
252
0
0
237
255
255
255
255
255
255
255
255
148
0
66
215
255
255
255
255
255
255
255
184
0
0
0
0
108
248
255
255
255
255
255
255
255
229
71
0
243
255
255
255
255
255
255
255
255
155
0
0
0
0
176
254
255
255
255
255
255
255
255
255
255
255
255
255
255
208
46
0
0
0
0
115
255
255
255
255
255
255
255
206
0
237
255
255
255
255
255
255
255
255
255
110
0
0
0
0
223
255
255
255
255
255
255
255
255
255
145
0
237
255
255
255
255
255
255
255
255
165
0
0
0
135
254
255
255
255
255
255
255
255
255
255
255
255
255
255
255
255
253
134
0
0
0
0
0
0
0
0
0
0
0
237
255
255
255
255
255
255
255
255
148
85
238
255
255
255
255
255
255
255
255
242
69
0
159
254
255
255
255
255
255
255
255
255
222
0
0
0
237
255
255
255
255
255
255
255
255
177
0
0
115
255
255
255
255
255
255
255
255
252
0
0
237
255
255
255
255
255
255
255
255
148
73
232
255
255
255
255
255
255
255
255
255
126
0
0
0
224
255
255
255
255
255
255
255
255
255
228
42
243
255
255
255
255
255
255
255
255
155
0
0
0
190
255
255
255
255
255
255
255
255
255
255
255
255
255
255
255
255
224
34
0
0
0
86
255
255
255
255
255
255
255
193
0
237
255
255
255
255
255
255
255
255
255
110
0
0
0
0
223
255
255
255
255
255
255
255
255
255
145
0
237
255
255
255
255
255
255
255
255
165
0
0
13
235
255
255
255
255
255
255
255
255
255
255
255
255
255
255
255
255
255
235
13
0
0
0
0
0
0
0
0
0
0
237
255
255
255
255
255
255
255
255
153
228
255
255
255
255
255
255
255
255
255
255
187
135
253
255
255
255
255
255
255
255
255
255
255
131
0
0
237
255
255
255
255
255
255
255
255
177
0
0
115
255
255
255
255
255
255
255
255
252
0
0
237
255
255
255
255
255
255
255
255
152
225
255
255
255
255
255
255
255
255
255
255
218
0
0
129
255
255
255
255
255
255
255
255
255
255
255
197
243
255
255
255
255
255
255
255
255
155
0
0
145
255
255
255
255
255
255
255
255
255
255
255
255
255
255
255
255
255
255
195
0
0
0
34
255
255
255
255
255
255
255
180
0
237
255
255
255
255
255
255
255
255
255
110
0
0
0
0
223
255
255
255
255
255
255
255
255
255
145
0
237
255
255
255
255
255
255
255
255
165
0
0
139
255
255
255
255
255
255
255
255
255
255
255
255
255
255
255
255
255
255
255
140
0
0
0
0
0
0
0
0
0
0
237
255
255
255
255
255
255
255
255
231
255
255
255
255
255
255
255
255
255
255
255
239
243
255
255
255
255
255
255
255
255
255
255
255
192
0
0
237
255
255
255
255
255
255
255
255
177
0
0
115
255
255
255
255
255
255
255
255
252
0
0
237
255
255
255
255
255
255
255
255
232
255
255
255
255
255
255
255
255
255
255
255
254
66
0
197
255
255
255
255
255
255
255
255
255
255
255
255
252
255
255
255
255
255
255
255
255
155
0
13
236
255
255
255
255
255
255
255
255
255
255
255
255
255
255
255
255
255
255
254
99
0
0
0
247
255
255
255
255
255
255
164
0
237
255
255
255
255
255
255
255
255
255
110
0
0
0
0
223
255
255
255
255
255
255
255
255
255
145
0
237
255
255
255
255
255
255
255
255
165
0
0
191
255
255
255
255
255
255
255
255
255
255
255
255
255
255
255
255
255
255
255
192
0
0
0
0
0
0
0
0
0
0
237
255
255
255
255
255
255
255
255
255
255
255
255
255
255
255
255
255
255
255
255
255
255
255
255
255
255
255
255
255
255
255
255
255
213
0
0
237
255
255
255
255
255
255
255
255
177
0
0
115
255
255
255
255
255
255
255
255
252
0
0
237
255
255
255
255
255
255
255
255
255
255
255
255
255
255
255
255
255
255
255
255
255
135
0
228
255
255
255
255
255
255
255
255
255
255
255
255
255
255
255
255
255
255
255
255
255
155
0
146
255
255
255
255
255
255
255
255
255
255
255
255
255
255
255
255
255
255
255
255
198
0
0
0
238
255
255
255
255
255
255
148
0
237
255
255
255
255
255
255
255
255
255
110
0
0
0
0
223
255
255
255
255
255
255
255
255
255
145
0
237
255
255
255
255
255
255
255
255
165
0
0
210
255
255
255
255
255
255
255
255
233
217
251
255
255
255
255
255
255
255
255
218
0
0
0
0
0
0
0
0
0
0
237
255
255
255
255
255
255
255
255
255
255
255
255
255
255
255
255
255
255
255
255
255
255
255
255
255
255
255
255
255
255
255
255
255
220
0
0
237
255
255
255
255
255
255
255
255
177
0
0
115
255
255
255
255
255
255
255
255
252
0
0
237
255
255
255
255
255
255
255
255
255
255
255
255
255
255
255
255
255
255
255
255
255
153
0
241
255
255
255
255
255
255
255
255
255
255
255
255
255
255
255
255
255
255
255
255
255
155
0
200
255
255
255
255
255
255
255
255
255
255
255
255
255
255
255
255
255
255
255
255
238
0
0
0
228
255
255
255
255
255
255
127
0
237
255
255
255
255
255
255
255
255
255
110
0
0
0
0
223
255
255
255
255
255
255
255
255
255
145
0
237
255
255
255
255
255
255
255
255
165
0
0
218
255
255
255
255
255
255
255
227
13
0
153
255
255
255
255
255
255
255
255
228
0
0
0
0
0
0
0
0
0
0
237
255
255
255
255
255
255
255
255
255
255
255
255
255
255
255
255
255
255
255
255
255
255
255
255
255
255
255
255
255
255
255
255
255
221
0
0
237
255
255
255
255
255
255
255
255
177
0
0
115
255
255
255
255
255
255
255
255
252
0
0
237
255
255
255
255
255
255
255
255
255
255
255
255
255
255
255
255
255
255
255
255
255
155
0
246
255
255
255
255
255
255
255
255
255
221
205
250
255
255
255
255
255
255
255
255
255
155
0
233
255
255
255
255
255
255
255
255
255
223
214
252
255
255
255
255
255
255
255
255
255
83
0
0
217
255
255
255
255
255
255
102
0
237
255
255
255
255
255
255
255
255
255
110
0
0
0
0
223
255
255
255
255
255
255
255
255
255
145
0
237
255
255
255
255
255
255
255
255
165
0
0
219
255
255
255
255
255
255
255
192
0
0
79
255
255
255
255
255
255
255
255
233
0
0
0
0
0
0
0
0
0
0
237
255
255
255
255
255
255
255
255
252
182
173
246
255
255
255
255
255
255
255
255
255
235
164
196
255
255
255
255
255
255
255
255
255
221
0
0
237
255
255
255
255
255
255
255
255
177
0
0
115
255
255
255
255
255
255
255
255
252
0
0
237
255
255
255
255
255
255
255
255
245
129
77
202
255
255
255
255
255
255
255
255
255
155
0
246
255
255
255
255
255
255
255
255
220
0
0
155
255
255
255
255
255
255
255
255
255
155
0
249
255
255
255
255
255
255
255
255
204
0
0
161
255
255
255
255
255
255
255
255
255
126
0
0
205
255
255
255
255
255
255
64
0
237
255
255
255
255
255
255
255
255
255
110
0
0
0
0
223
255
255
255
255
255
255
255
255
255
145
0
237
255
255
255
255
255
255
255
255
165
0
0
219
255
255
255
255
255
255
255
188
0
0
61
255
255
255
255
255
255
255
255
233
0
0
0
0
0
0
0
0
0
0
237
255
255
255
255
255
255
255
255
202
0
0
171
255
255
255
255
255
255
255
255
255
131
0
0
222
255
255
255
255
255
255
255
255
221
0
0
237
255
255
255
255
255
255
255
255
177
0
0
115
255
255
255
255
255
255
255
255
252
0
0
237
255
255
255
255
255
255
255
255
192
0
0
73
255
255
255
255
255
255
255
255
255
155
0
246
255
255
255
255
255
255
255
255
178
0
0
34
253
255
255
255
255
255
255
255
255
155
28
255
255
255
255
255
255
255
255
255
147
0
0
50
255
255
255
255
255
255
255
255
255
144
0
0
192
255
255
255
255
255
252
0
0
237
255
255
255
255
255
255
255
255
255
110
0
0
0
0
223
255
255
255
255
255
255
255
255
255
145
0
237
255
255
255
255
255
255
255
255
165
0
0
219
255
255
255
255
255
255
255
188
0
0
61
255
255
255
255
255
255
255
255
233
0
0
0
0
0
0
0
0
0
0
237
255
255
255
255
255
255
255
255
172
0
0
127
255
255
255
255
255
255
255
255
255
66
0
0
194
255
255
255
255
255
255
255
255
221
0
0
237
255
255
255
255
255
255
255
255
177
0
0
115
255
255
255
255
255
255
255
255
252
0
0
237
255
255
255
255
255
255
255
255
169
0
0
0
251
255
255
255
255
255
255
255
255
155
0
246
255
255
255
255
255
255
255
255
165
0
0
0
245
255
255
255
255
255
255
255
255
155
69
255
255
255
255
255
255
255
255
255
129
0
0
0
250
255
255
255
255
255
255
255
255
155
0
0
179
255
255
255
255
255
243
0
0
237
255
255
255
255
255
255
255
255
255
110
0
0
0
0
223
255
255
255
255
255
255
255
255
255
145
0
237
255
255
255
255
255
255
255
255
165
0
0
219
255
255
255
255
255
255
255
188
0
0
117
255
255
255
255
255
255
255
255
233
0
0
0
0
0
0
0
0
0
0
237
255
255
255
255
255
255
255
255
165
0
0
115
255
255
255
255
255
255
255
255
255
61
0
0
188
255
255
255
255
255
255
255
255
221
0
0
237
255
255
255
255
255
255
255
255
177
0
0
115
255
255
255
255
255
255
255
255
252
0
0
237
255
255
255
255
255
255
255
255
165
0
0
0
250
255
255
255
255
255
255
255
255
155
0
246
255
255
255
255
255
255
255
255
165
0
0
0
243
255
255
255
255
255
255
255
255
155
71
255
255
255
255
255
255
255
255
255
129
0
0
0
250
255
255
255
255
255
255
255
255
155
0
0
163
255
255
255
255
255
233
0
0
237
255
255
255
255
255
255
255
255
255
110
0
0
0
0
223
255
255
255
255
255
255
255
255
255
145
0
237
255
255
255
255
255
255
255
255
165
0
0
173
203
203
203
203
203
203
203
148
0
147
235
255
255
255
255
255
255
255
255
233
0
0
0
0
0
0
0
0
0
0
237
255
255
255
255
255
255
255
255
165
0
0
115
255
255
255
255
255
255
255
255
255
61
0
0
188
255
255
255
255
255
255
255
255
221
0
0
237
255
255
255
255
255
255
255
255
177
0
0
115
255
255
255
255
255
255
255
255
252
0
0
237
255
255
255
255
255
255
255
255
165
0
0
0
250
255
255
255
255
255
255
255
255
155
0
246
255
255
255
255
255
255
255
255
165
0
0
0
243
255
255
255
255
255
255
255
255
155
71
255
255
255
255
255
255
255
255
255
129
0
0
0
250
255
255
255
255
255
255
255
255
155
0
0
147
255
255
255
255
255
222
0
0
237
255
255
255
255
255
255
255
255
255
110
0
0
0
0
223
255
255
255
255
255
255
255
255
255
145
0
237
255
255
255
255
255
255
255
255
165
0
0
0
0
0
0
0
0
0
0
150
231
255
255
255
255
255
255
255
255
255
255
233
0
0
0
0
0
0
0
0
0
0
237
255
255
255
255
255
255
255
255
165
0
0
115
255
255
255
255
255
255
255
255
255
61
0
0
188
255
255
255
255
255
255
255
255
221
0
0
237
255
255
255
255
255
255
255
255
177
0
0
115
255
255
255
255
255
255
255
255
252
0
0
237
255
255
255
255
255
255
255
255
165
0
0
0
250
255
255
255
255
255
255
255
255
155
0
246
255
255
255
255
255
255
255
255
165
0
0
0
243
255
255
255
255
255
255
255
255
155
71
255
255
255
255
255
255
255
255
255
129
0
0
0
250
255
255
255
255
255
255
255
255
155
0
0
126
255
255
255
255
255
212
0
0
237
255
255
255
255
255
255
255
255
255
110
0
0
0
0
223
255
255
255
255
255
255
255
255
255
145
0
237
255
255
255
255
255
255
255
255
165
0
0
0
0
0
0
0
13
153
233
255
255
255
255
255
255
255
255
255
255
255
255
233
0
0
0
0
0
0
0
0
0
0
237
255
255
255
255
255
255
255
255
165
0
0
115
255
255
255
255
255
255
255
255
255
61
0
0
188
255
255
255
255
255
255
255
255
221
0
0
237
255
255
255
255
255
255
255
255
177
0
0
115
255
255
255
255
255
255
255
255
252
0
0
237
255
255
255
255
255
255
255
255
165
0
0
0
250
255
255
255
255
255
255
255
255
155
0
246
255
255
255
255
255
255
255
255
165
0
0
0
243
255
255
255
255
255
255
255
255
155
71
255
255
255
255
255
255
255
255
255
129
0
0
0
250
255
255
255
255
255
255
255
255
155
0
0
99
255
255
255
255
255
199
0
0
237
255
255
255
255
255
255
255
255
255
110
0
0
0
0
223
255
255
255
255
255
255
255
255
255
145
0
237
255
255
255
255
255
255
255
255
165
0
0
0
0
0
0
147
233
255
255
255
255
255
255
255
255
255
255
255
255
255
255
233
0
0
0
0
0
0
0
0
0
0
237
255
255
255
255
255
255
255
255
165
0
0
115
255
255
255
255
255
255
255
255
255
61
0
0
188
255
255
255
255
255
255
255
255
221
0
0
237
255
255
255
255
255
255
255
255
177
0
0
115
255
255
255
255
255
255
255
255
252
0
0
237
255
255
255
255
255
255
255
255
165
0
0
0
250
255
255
255
255
255
255
255
255
155
0
246
255
255
255
255
255
255
255
255
165
0
0
0
243
255
255
255
255
255
255
255
255
155
71
255
255
255
255
255
255
255
255
255
129
0
0
0
250
255
255
255
255
255
255
255
255
155
0
0
61
255
255
255
255
255
187
0
0
237
255
255
255
255
255
255
255
255
255
110
0
0
0
0
223
255
255
255
255
255
255
255
255
255
145
0
237
255
255
255
255
255
255
255
255
165
0
0
0
0
50
208
255
255
255
255
255
255
255
255
255
255
255
255
255
255
255
255
233
0
0
0
0
0
0
0
0
0
0
237
255
255
255
255
255
255
255
255
165
0
0
115
255
255
255
255
255
255
255
255
255
61
0
0
188
255
255
255
255
255
255
255
255
221
0
0
237
255
255
255
255
255
255
255
255
177
0
0
115
255
255
255
255
255
255
255
255
252
0
0
237
255
255
255
255
255
255
255
255
165
0
0
0
250
255
255
255
255
255
255
255
255
155
0
246
255
255
255
255
255
255
255
255
165
0
0
0
243
255
255
255
255
255
255
255
255
155
71
255
255
255
255
255
255
255
255
255
129
0
0
0
250
255
255
255
255
255
255
255
255
155
0
0
0
251
255
255
255
255
172
0
0
237
255
255
255
255
255
255
255
255
255
110
0
0
0
0
223
255
255
255
255
255
255
255
255
255
145
0
237
255
255
255
255
255
255
255
255
165
0
0
0
56
229
255
255
255
255
255
255
255
255
255
255
255
255
255
255
255
255
255
233
0
0
0
0
0
0
0
0
0
0
237
255
255
255
255
255
255
255
255
165
0
0
115
255
255
255
255
255
255
255
255
255
61
0
0
188
255
255
255
255
255
255
255
255
221
0
0
237
255
255
255
255
255
255
255
255
177
0
0
115
255
255
255
255
255
255
255
255
252
0
0
237
255
255
255
255
255
255
255
255
165
0
0
0
250
255
255
255
255
255
255
255
255
155
0
246
255
255
255
255
255
255
255
255
165
0
0
0
243
255
255
255
255
255
255
255
255
155
71
255
255
255
255
255
255
255
255
255
129
0
0
0
250
255
255
255
255
255
255
255
255
155
0
0
0
242
255
255
255
255
156
0
0
237
255
255
255
255
255
255
255
255
255
110
0
0
0
0
223
255
255
255
255
255
255
255
255
255
145
0
237
255
255
255
255
255
255
255
255
165
0
0
0
202
255
255
255
255
255
255
255
255
255
255
255
255
255
255
255
255
255
255
233
0
0
0
0
0
0
0
0
0
0
237
255
255
255
255
255
255
255
255
165
0
0
115
255
255
255
255
255
255
255
255
255
61
0
0
188
255
255
255
255
255
255
255
255
221
0
0
237
255
255
255
255
255
255
255
255
177
0
0
115
255
255
255
255
255
255
255
255
252
0
0
237
255
255
255
255
255
255
255
255
165
0
0
0
250
255
255
255
255
255
255
255
255
155
0
246
255
255
255
255
255
255
255
255
165
0
0
0
243
255
255
255
255
255
255
255
255
155
71
255
255
255
255
255
255
255
255
255
129
0
0
0
250
255
255
255
255
255
255
255
255
155
0
0
0
232
255
255
255
255
137
0
0
237
255
255
255
255
255
255
255
255
255
110
0
0
0
0
223
255
255
255
255
255
255
255
255
255
145
0
237
255
255
255
255
255
255
255
255
165
0
0
124
255
255
255
255
255
255
255
255
255
255
249
255
255
255
255
255
255
255
255
233
0
0
0
0
0
0
0
0
0
0
237
255
255
255
255
255
255
255
255
165
0
0
115
255
255
255
255
255
255
255
255
255
61
0
0
188
255
255
255
255
255
255
255
255
221
0
0
237
255
255
255
255
255
255
255
255
177
0
0
115
255
255
255
255
255
255
255
255
252
0
0
237
255
255
255
255
255
255
255
255
165
0
0
0
250
255
255
255
255
255
255
255
255
155
0
246
255
255
255
255
255
255
255
255
165
0
0
0
243
255
255
255
255
255
255
255
255
155
71
255
255
255
255
255
255
255
255
255
129
0
0
0
250
255
255
255
255
255
255
255
255
155
0
0
0
221
255
255
255
255
115
0
0
237
255
255
255
255
255
255
255
255
255
110
0
0
0
0
223
255
255
255
255
255
255
255
255
255
145
0
237
255
255
255
255
255
255
255
255
165
0
0
199
255
255
255
255
255
255
255
255
255
214
99
255
255
255
255
255
255
255
255
233
0
0
0
0
0
0
0
0
0
0
237
255
255
255
255
255
255
255
255
165
0
0
115
255
255
255
255
255
255
255
255
255
61
0
0
188
255
255
255
255
255
255
255
255
221
0
0
237
255
255
255
255
255
255
255
255
177
0
0
115
255
255
255
255
255
255
255
255
252
0
0
237
255
255
255
255
255
255
255
255
165
0
0
0
250
255
255
255
255
255
255
255
255
155
0
246
255
255
255
255
255
255
255
255
165
0
0
0
243
255
255
255
255
255
255
255
255
155
71
255
255
255
255
255
255
255
255
255
129
0
0
0
250
255
255
255
255
255
255
255
255
155
0
0
0
210
255
255
255
255
85
0
0
237
255
255
255
255
255
255
255
255
255
110
0
0
0
0
223
255
255
255
255
255
255
255
255
255
145
0
237
255
255
255
255
255
255
255
255
165
0
0
241
255
255
255
255
255
255
255
255
209
0
61
255
255
255
255
255
255
255
255
233
0
0
0
0
0
0
0
0
0
0
237
255
255
255
255
255
255
255
255
165
0
0
115
255
255
255
255
255
255
255
255
255
61
0
0
188
255
255
255
255
255
255
255
255
221
0
0
237
255
255
255
255
255
255
255
255
177
0
0
115
255
255
255
255
255
255
255
255
252
0
0
237
255
255
255
255
255
255
255
255
165
0
0
0
250
255
255
255
255
255
255
255
255
155
0
246
255
255
255
255
255
255
255
255
165
0
0
0
243
255
255
255
255
255
255
255
255
155
71
255
255
255
255
255
255
255
255
255
129
0
0
0
250
255
255
255
255
255
255
255
255
155
0
0
0
198
255
255
255
255
34
0
0
237
255
255
255
255
255
255
255
255
255
110
0
0
0
0
223
255
255
255
255
255
255
255
255
255
145
0
237
255
255
255
255
255
255
255
255
165
0
28
254
255
255
255
255
255
255
255
252
90
0
61
255
255
255
255
255
255
255
255
233
0
0
0
0
0
0
0
0
0
0
237
255
255
255
255
255
255
255
255
165
0
0
115
255
255
255
255
255
255
255
255
255
61
0
0
188
255
255
255
255
255
255
255
255
221
0
0
237
255
255
255
255
255
255
255
255
177
0
0
115
255
255
255
255
255
255
255
255
252
0
0
237
255
255
255
255
255
255
255
255
165
0
0
0
250
255
255
255
255
255
255
255
255
155
0
246
255
255
255
255
255
255
255
255
165
0
0
0
243
255
255
255
255
255
255
255
255
155
71
255
255
255
255
255
255
255
255
255
129
0
0
0
250
255
255
255
255
255
255
255
255
155
0
0
0
185
255
255
255
247
0
0
0
237
255
255
255
255
255
255
255
255
255
110
0
0
0
0
223
255
255
255
255
255
255
255
255
255
145
0
237
255
255
255
255
255
255
255
255
165
0
88
255
255
255
255
255
255
255
255
236
0
0
61
255
255
255
255
255
255
255
255
233
0
0
0
0
0
0
0
0
0
0
237
255
255
255
255
255
255
255
255
165
0
0
115
255
255
255
255
255
255
255
255
255
61
0
0
188
255
255
255
255
255
255
255
255
221
0
0
237
255
255
255
255
255
255
255
255
177
0
0
115
255
255
255
255
255
255
255
255
252
0
0
237
255
255
255
255
255
255
255
255
165
0
0
0
250
255
255
255
255
255
255
255
255
155
0
246
255
255
255
255
255
255
255
255
165
0
0
0
243
255
255
255
255
255
255
255
255
155
71
255
255
255
255
255
255
255
255
255
129
0
0
0
250
255
255
255
255
255
255
255
255
155
0
0
0
170
255
255
255
238
0
0
0
237
255
255
255
255
255
255
255
255
255
110
0
0
0
0
223
255
255
255
255
255
255
255
255
255
145
0
237
255
255
255
255
255
255
255
255
165
0
105
255
255
255
255
255
255
255
255
222
0
0
61
255
255
255
255
255
255
255
255
233
0
0
0
0
0
0
0
0
0
0
237
255
255
255
255
255
255
255
255
165
0
0
115
255
255
255
255
255
255
255
255
255
61
0
0
188
255
255
255
255
255
255
255
255
221
0
0
237
255
255
255
255
255
255
255
255
177
0
0
115
255
255
255
255
255
255
255
255
252
0
0
237
255
255
255
255
255
255
255
255
165
0
0
0
250
255
255
255
255
255
255
255
255
155
0
246
255
255
255
255
255
255
255
255
165
0
0
0
243
255
255
255
255
255
255
255
255
155
71
255
255
255
255
255
255
255
255
255
129
0
0
0
250
255
255
255
255
255
255
255
255
155
0
0
0
154
255
255
255
228
0
0
0
237
255
255
255
255
255
255
255
255
255
110
0
0
0
0
223
255
255
255
255
255
255
255
255
255
145
0
237
255
255
255
255
255
255
255
255
165
0
105
255
255
255
255
255
255
255
255
221
0
0
61
255
255
255
255
255
255
255
255
233
0
0
0
0
0
0
0
0
0
0
237
255
255
255
255
255
255
255
255
165
0
0
115
255
255
255
255
255
255
255
255
255
61
0
0
188
255
255
255
255
255
255
255
255
221
0
0
237
255
255
255
255
255
255
255
255
177
0
0
115
255
255
255
255
255
255
255
255
252
0
0
237
255
255
255
255
255
255
255
255
165
0
0
0
250
255
255
255
255
255
255
255
255
155
0
246
255
255
255
255
255
255
255
255
165
0
0
0
243
255
255
255
255
255
255
255
255
155
71
255
255
255
255
255
255
255
255
255
129
0
0
0
250
255
255
255
255
255
255
255
255
155
0
0
0
135
255
255
255
217
0
0
0
235
255
255
255
255
255
255
255
255
255
113
0
0
0
0
224
255
255
255
255
255
255
255
255
255
140
0
237
255
255
255
255
255
255
255
255
165
0
105
255
255
255
255
255
255
255
255
221
0
0
61
255
255
255
255
255
255
255
255
233
0
0
0
0
0
0
0
0
0
0
237
255
255
255
255
255
255
255
255
165
0
0
115
255
255
255
255
255
255
255
255
255
61
0
0
188
255
255
255
255
255
255
255
255
221
0
0
237
255
255
255
255
255
255
255
255
177
0
0
115
255
255
255
255
255
255
255
255
252
0
0
237
255
255
255
255
255
255
255
255
165
0
0
0
250
255
255
255
255
255
255
255
255
155
0
246
255
255
255
255
255
255
255
255
165
0
0
0
243
255
255
255
255
255
255
255
255
155
71
255
255
255
255
255
255
255
255
255
129
0
0
0
250
255
255
255
255
255
255
255
255
155
0
0
0
112
255
255
255
205
0
0
0
228
255
255
255
255
255
255
255
255
255
140
0
0
0
0
236
255
255
255
255
255
255
255
255
255
122
0
237
255
255
255
255
255
255
255
255
165
0
105
255
255
255
255
255
255
255
255
221
0
0
61
255
255
255
255
255
255
255
255
233
0
0
0
0
0
0
0
0
0
0
237
255
255
255
255
255
255
255
255
165
0
0
115
255
255
255
255
255
255
255
255
255
61
0
0
188
255
255
255
255
255
255
255
255
221
0
0
237
255
255
255
255
255
255
255
255
177
0
0
115
255
255
255
255
255
255
255
255
252
0
0
237
255
255
255
255
255
255
255
255
165
0
0
0
250
255
255
255
255
255
255
255
255
155
0
246
255
255
255
255
255
255
255
255
165
0
0
0
243
255
255
255
255
255
255
255
255
155
71
255
255
255
255
255
255
255
255
255
129
0
0
0
250
255
255
255
255
255
255
255
255
155
0
0
0
28
99
99
99
75
0
0
0
219
255
255
255
255
255
255
255
255
255
200
0
0
0
102
254
255
255
255
255
255
255
255
255
255
101
0
237
255
255
255
255
255
255
255
255
165
0
105
255
255
255
255
255
255
255
255
221
0
0
61
255
255
255
255
255
255
255
255
233
0
0
0
0
0
0
0
0
0
0
237
255
255
255
255
255
255
255
255
165
0
0
115
255
255
255
255
255
255
255
255
255
61
0
0
188
255
255
255
255
255
255
255
255
221
0
0
237
255
255
255
255
255
255
255
255
178
0
0
121
255
255
255
255
255
255
255
255
252
0
0
237
255
255
255
255
255
255
255
255
165
0
0
0
250
255
255
255
255
255
255
255
255
155
0
246
255
255
255
255
255
255
255
255
165
0
0
0
243
255
255
255
255
255
255
255
255
155
66
255
255
255
255
255
255
255
255
255
134
0
0
0
252
255
255
255
255
255
255
255
255
152
0
147
190
190
190
190
190
190
190
190
22
204
255
255
255
255
255
255
255
255
255
254
196
140
155
236
255
255
255
255
255
255
255
255
255
253
46
0
237
255
255
255
255
255
255
255
255
165
0
105
255
255
255
255
255
255
255
255
228
0
0
93
255
255
255
255
255
255
255
255
234
0
0
0
0
0
0
0
0
0
0
237
255
255
255
255
255
255
255
255
165
0
0
115
255
255
255
255
255
255
255
255
255
61
0
0
188
255
255
255
255
255
255
255
255
221
0
0
237
255
255
255
255
255
255
255
255
195
0
0
155
255
255
255
255
255
255
255
255
252
0
0
237
255
255
255
255
255
255
255
255
165
0
0
0
250
255
255
255
255
255
255
255
255
155
0
246
255
255
255
255
255
255
255
255
174
0
0
0
252
255
255
255
255
255
255
255
255
155
22
255
255
255
255
255
255
255
255
255
164
0
0
95
255
255
255
255
255
255
255
255
255
136
0
198
255
255
255
255
255
255
255
255
34
169
255
255
255
255
255
255
255
255
255
255
255
255
255
255
255
255
255
255
255
255
255
255
255
230
0
0
237
255
255
255
255
255
255
255
255
165
0
105
255
255
255
255
255
255
255
255
251
98
0
183
255
255
255
255
255
255
255
255
252
173
155
69
0
0
0
0
0
0
0
237
255
255
255
255
255
255
255
255
165
0
0
115
255
255
255
255
255
255
255
255
255
61
0
0
188
255
255
255
255
255
255
255
255
221
0
0
237
255
255
255
255
255
255
255
255
243
118
104
231
255
255
255
255
255
255
255
255
252
0
0
237
255
255
255
255
255
255
255
255
165
0
0
0
250
255
255
255
255
255
255
255
255
155
0
246
255
255
255
255
255
255
255
255
208
0
0
129
255
255
255
255
255
255
255
255
255
155
0
248
255
255
255
255
255
255
255
255
234
95
66
210
255
255
255
255
255
255
255
255
255
114
0
198
255
255
255
255
255
255
255
255
34
117
255
255
255
255
255
255
255
255
255
255
255
255
255
255
255
255
255
255
255
255
255
255
255
197
0
0
237
255
255
255
255
255
255
255
255
165
0
105
255
255
255
255
255
255
255
255
255
251
240
255
255
255
255
255
255
255
255
255
255
255
255
120
0
0
0
0
0
0
0
237
255
255
255
255
255
255
255
255
165
0
0
115
255
255
255
255
255
255
255
255
255
61
0
0
188
255
255
255
255
255
255
255
255
221
0
0
237
255
255
255
255
255
255
255
255
255
255
255
255
255
255
255
255
255
255
255
255
252
0
0
237
255
255
255
255
255
255
255
255
165
0
0
0
250
255
255
255
255
255
255
255
255
155
0
244
255
255
255
255
255
255
255
255
254
191
170
240
255
255
255
255
255
255
255
255
255
155
0
229
255
255
255
255
255
255
255
255
255
255
255
255
255
255
255
255
255
255
255
255
250
34
0
198
255
255
255
255
255
255
255
255
34
0
237
255
255
255
255
255
255
255
255
255
255
255
255
255
255
255
255
255
255
255
255
255
255
120
0
0
237
255
255
255
255
255
255
255
255
165
0
99
255
255
255
255
255
255
255
255
255
255
255
255
255
255
255
255
255
255
255
255
255
255
255
120
0
0
0
0
0
0
0
237
255
255
255
255
255
255
255
255
165
0
0
115
255
255
255
255
255
255
255
255
255
61
0
0
188
255
255
255
255
255
255
255
255
221
0
0
235
255
255
255
255
255
255
255
255
255
255
255
255
255
255
255
255
255
255
255
255
252
0
0
237
255
255
255
255
255
255
255
255
165
0
0
0
250
255
255
255
255
255
255
255
255
155
0
236
255
255
255
255
255
255
255
255
255
255
255
255
255
255
255
255
255
255
255
255
255
155
0
196
255
255
255
255
255
255
255
255
255
255
255
255
255
255
255
255
255
255
255
255
221
0
0
198
255
255
255
255
255
255
255
255
34
0
177
255
255
255
255
255
255
255
255
255
255
255
255
255
255
255
255
255
255
255
255
255
228
0
0
0
237
255
255
255
255
255
255
255
255
165
0
69
255
255
255
255
255
255
255
255
255
255
255
255
255
255
255
255
255
255
255
255
255
255
255
120
0
0
0
0
0
0
0
237
255
255
255
255
255
255
255
255
165
0
0
115
255
255
255
255
255
255
255
255
255
61
0
0
188
255
255
255
255
255
255
255
255
221
0
0
223
255
255
255
255
255
255
255
255
255
255
255
255
255
255
255
255
255
255
255
255
252
0
0
237
255
255
255
255
255
255
255
255
165
0
0
0
250
255
255
255
255
255
255
255
255
155
0
215
255
255
255
255
255
255
255
255
255
255
255
255
255
255
255
255
255
255
255
255
255
155
0
130
255
255
255
255
255
255
255
255
255
255
255
255
255
255
255
255
255
255
255
255
157
0
0
198
255
255
255
255
255
255
255
255
34
0
64
241
255
255
255
255
255
255
255
255
255
255
255
255
255
255
255
255
255
255
255
254
131
0
0
0
237
255
255
255
255
255
255
255
255
165
0
0
241
255
255
255
255
255
255
255
255
255
255
238
255
255
255
255
255
255
255
255
255
255
255
120
0
0
0
0
0
0
0
237
255
255
255
255
255
255
255
255
165
0
0
115
255
255
255
255
255
255
255
255
255
61
0
0
188
255
255
255
255
255
255
255
255
221
0
0
192
255
255
255
255
255
255
255
255
255
255
255
231
251
255
255
255
255
255
255
255
252
0
0
237
255
255
255
255
255
255
255
255
165
0
0
0
250
255
255
255
255
255
255
255
255
155
0
174
255
255
255
255
255
255
255
255
255
255
255
254
252
255
255
255
255
255
255
255
255
155
0
0
231
255
255
255
255
255
255
255
255
255
255
255
255
255
255
255
255
255
255
239
28
0
0
198
255
255
255
255
255
255
255
255
34
0
0
137
255
255
255
255
255
255
255
255
255
255
255
255
255
255
255
255
255
255
255
193
0
0
0
0
237
255
255
255
255
255
255
255
255
165
0
0
199
255
255
255
255
255
255
255
255
255
254
133
253
255
255
255
255
255
255
255
255
255
255
120
0
0
0
0
0
0
0
237
255
255
255
255
255
255
255
255
165
0
0
115
255
255
255
255
255
255
255
255
255
61
0
0
188
255
255
255
255
255
255
255
255
221
0
0
113
255
255
255
255
255
255
255
255
255
255
246
104
250
255
255
255
255
255
255
255
252
0
0
237
255
255
255
255
255
255
255
255
165
0
0
0
250
255
255
255
255
255
255
255
255
155
0
75
251
255
255
255
255
255
255
255
255
255
255
199
243
255
255
255
255
255
255
255
255
155
0
0
131
254
255
255
255
255
255
255
255
255
255
255
255
255
255
255
255
255
254
133
0
0
0
198
255
255
255
255
255
255
255
255
34
0
0
0
168
254
255
255
255
255
255
255
255
255
255
255
255
255
255
255
255
255
208
28
0
0
0
0
237
255
255
255
255
255
255
255
255
165
0
0
99
251
255
255
255
255
255
255
255
255
178
0
237
255
255
255
255
255
255
255
255
255
255
120
0
0
0
0
0
0
0
237
255
255
255
255
255
255
255
255
165
0
0
115
255
255
255
255
255
255
255
255
255
61
0
0
188
255
255
255
255
255
255
255
255
221
0
0
0
207
255
255
255
255
255
255
255
255
249
130
0
250
255
255
255
255
255
255
255
252
0
0
237
255
255
255
255
255
255
255
255
165
0
0
0
250
255
255
255
255
255
255
255
255
155
0
0
187
255
255
255
255
255
255
255
255
255
236
66
243
255
255
255
255
255
255
255
255
155
0
0
0
185
255
255
255
255
255
255
255
255
255
255
255
255
255
255
255
255
176
0
0
0
0
198
255
255
255
255
255
255
255
255
34
0
0
0
0
149
244
255
255
255
255
255
255
255
255
255
255
255
255
255
252
190
13
0
0
0
0
0
237
255
255
255
255
255
255
255
255
165
0
0
0
164
255
255
255
255
255
255
253
177
0
0
192
255
255
255
255
255
255
255
255
255
255
120
0
0
0
0
0
0
0
237
255
255
255
255
255
255
255
255
165
0
0
115
255
255
255
255
255
255
255
255
255
61
0
0
188
255
255
255
255
255
255
255
255
221
0
0
0
61
230
255
255
255
255
255
255
238
119
0
0
250
255
255
255
255
255
255
255
252
0
0
237
255
255
255
255
255
255
255
255
165
0
0
0
250
255
255
255
255
255
255
255
255
155
0
0
38
222
255
255
255
255
255
255
255
241
92
0
243
255
255
255
255
255
255
255
255
155
0
0
0
0
180
254
255
255
255
255
255
255
255
255
255
255
255
255
251
165
0
0
0
0
0
198
255
255
255
255
255
255
255
255
34
0
0
0
0
0
59
185
237
255
255
255
255
255
255
255
255
255
248
209
106
0
0
0
0
0
0
0
237
255
255
255
255
255
255
255
255
165
0
0
0
0
137
222
248
254
242
207
114
0
0
0
61
216
253
255
255
255
255
255
255
255
255
120
0
0
0
0
0
0
0
237
255
255
255
255
255
255
255
255
165
0
0
115
255
255
255
255
255
255
255
255
255
61
0
0
188
255
255
255
255
255
255
255
255
221
0
0
0
0
46
184
236
252
251
231
178
50
0
0
0
250
255
255
255
255
255
255
255
252
0
0
237
255
255
255
255
255
255
255
255
165
0
0
0
250
255
255
255
255
255
255
255
255
155
0
0
0
56
202
254
255
255
255
255
220
88
0
0
243
255
255
255
255
255
255
255
255
155
0
0
0
0
0
112
214
251
255
255
255
255
255
255
255
255
250
208
96
0
0
0
0
0
0
198
255
255
255
255
255
255
255
255
34
0
0
0
0
0
0
0
0
96
153
170
184
188
187
179
162
133
34
0
0
0
0
0
0
0
0
0
0
0
0
0
0
0
0
0
0
0
0
0
0
0
0
0
0
0
0
0
0
0
0
0
0
0
0
0
0
0
0
0
0
0
0
0
0
0
0
0
0
0
0
0
0
0
0
0
0
0
0
0
0
0
0
0
0
0
0
0
0
0
0
0
0
0
0
0
0
0
0
0
0
0
0
0
0
0
0
0
0
0
0
0
0
0
0
0
0
0
0
0
0
0
0
0
0
0
0
0
0
0
0
0
0
0
0
0
0
0
0
0
0
0
0
0
0
0
0
0
0
0
0
0
0
0
0
0
0
0
0
0
93
166
184
174
118
0
0
0
0
0
0
0
0
0
0
0
0
0
0
0
0
0
0
0
0
0
50
139
167
181
188
188
182
167
138
42
0
0
0
0
0
0
0
0
0
0
0
0
0
0
0
0
0
0
